HIERARCHY
ROOT Hips
{
    OFFSET   0.000000   0.000000   0.000000
    CHANNELS 6 Xposition Yposition Zposition Zrotation Xrotation Yrotation
    JOINT Chest
    {
        OFFSET   0.000000   8.007240   0.000000
        CHANNELS 3 Zrotation Xrotation Yrotation
        JOINT Chest2
        {
            OFFSET   0.000000  22.077100   0.000000
            CHANNELS 3 Zrotation Xrotation Yrotation
            JOINT Neck
            {
                OFFSET   0.000000  23.254800   0.000000
                CHANNELS 3 Zrotation Xrotation Yrotation
                JOINT Head
                {
                    OFFSET   0.000000  14.370000   1.956600
                    CHANNELS 3 Zrotation Xrotation Yrotation
                    End Site
                    {
                        OFFSET   0.000000  19.566000   0.000000
                    }
                }
            }
            JOINT LeftCollar
            {
                OFFSET   3.911900  19.017000  -0.467064
                CHANNELS 3 Zrotation Xrotation Yrotation
                JOINT LeftShoulder
                {
                    OFFSET  10.383700   0.000000   0.000000
                    CHANNELS 3 Zrotation Xrotation Yrotation
                    JOINT LeftElbow
                    {
                        OFFSET  26.662100   0.001476   0.000517
                        CHANNELS 3 Zrotation Xrotation Yrotation
                        JOINT LeftWrist
                        {
                            OFFSET  28.869000  -0.000025  -0.000106
                            CHANNELS 3 Zrotation Xrotation Yrotation
                            JOINT LeftFinger0
                            {
                                OFFSET   2.044660  -2.323460   3.252850
                                CHANNELS 3 Zrotation Xrotation Yrotation
                                JOINT LeftFinger01
                                {
                                    OFFSET   3.088130   0.000000   0.000000
                                    CHANNELS 3 Zrotation Xrotation Yrotation
                                    JOINT LeftFinger02
                                    {
                                        OFFSET   2.639460   0.000000   0.000000
                                        CHANNELS 3 Zrotation Xrotation Yrotation
                                        End Site
                                        {
                                            OFFSET   2.582190   0.000000   0.000000
                                        }
                                    }
                                }
                            }
                            JOINT LeftFinger1
                            {
                                OFFSET   8.364480   0.000000   3.252850
                                CHANNELS 3 Zrotation Xrotation Yrotation
                                JOINT LeftFinger11
                                {
                                    OFFSET   4.646930   0.000000   0.000000
                                    CHANNELS 3 Zrotation Xrotation Yrotation
                                    JOINT LeftFinger12
                                    {
                                        OFFSET   2.323460   0.000000   0.000000
                                        CHANNELS 3 Zrotation Xrotation Yrotation
                                        End Site
                                        {
                                            OFFSET   2.273050   0.000000   0.000000
                                        }
                                    }
                                }
                            }
                            JOINT LeftFinger2
                            {
                                OFFSET   8.364490   0.000015   1.078090
                                CHANNELS 3 Zrotation Xrotation Yrotation
                                JOINT LeftFinger21
                                {
                                    OFFSET   5.111620   0.000000   0.000000
                                    CHANNELS 3 Zrotation Xrotation Yrotation
                                    JOINT LeftFinger22
                                    {
                                        OFFSET   2.788160   0.000016   0.000000
                                        CHANNELS 3 Zrotation Xrotation Yrotation
                                        End Site
                                        {
                                            OFFSET   2.727660   0.000000   0.000000
                                        }
                                    }
                                }
                            }
                            JOINT LeftFinger3
                            {
                                OFFSET   7.899780   0.000017  -1.078090
                                CHANNELS 3 Zrotation Xrotation Yrotation
                                JOINT LeftFinger31
                                {
                                    OFFSET   4.646930   0.000000   0.000000
                                    CHANNELS 3 Zrotation Xrotation Yrotation
                                    JOINT LeftFinger32
                                    {
                                        OFFSET   2.323470   0.000000   0.000000
                                        CHANNELS 3 Zrotation Xrotation Yrotation
                                        End Site
                                        {
                                            OFFSET   2.273050   0.000000   0.000000
                                        }
                                    }
                                }
                            }
                            JOINT LeftFinger4
                            {
                                OFFSET   7.435090   0.000000  -3.252850
                                CHANNELS 3 Zrotation Xrotation Yrotation
                                JOINT LeftFinger41
                                {
                                    OFFSET   3.717550   0.000000   0.000000
                                    CHANNELS 3 Zrotation Xrotation Yrotation
                                    JOINT LeftFinger42
                                    {
                                        OFFSET   1.858770   0.000000   0.000000
                                        CHANNELS 3 Zrotation Xrotation Yrotation
                                        End Site
                                        {
                                            OFFSET   1.818440   0.000000   0.000000
                                        }
                                    }
                                }
                            }
                        }
                    }
                }
            }
            JOINT RightCollar
            {
                OFFSET  -3.911900  19.017000  -0.467063
                CHANNELS 3 Zrotation Xrotation Yrotation
                JOINT RightShoulder
                {
                    OFFSET -10.383700   0.000019   0.000000
                    CHANNELS 3 Zrotation Xrotation Yrotation
                    JOINT RightElbow
                    {
                        OFFSET -26.662100   0.001175   0.000102
                        CHANNELS 3 Zrotation Xrotation Yrotation
                        JOINT RightWrist
                        {
                            OFFSET -28.869000   0.000016  -0.000079
                            CHANNELS 3 Zrotation Xrotation Yrotation
                            JOINT RightFinger0
                            {
                                OFFSET  -2.044660  -2.323490   3.252850
                                CHANNELS 3 Zrotation Xrotation Yrotation
                                JOINT RightFinger01
                                {
                                    OFFSET  -3.088140   0.000000   0.000000
                                    CHANNELS 3 Zrotation Xrotation Yrotation
                                    JOINT RightFinger02
                                    {
                                        OFFSET  -2.639460   0.000000   0.000000
                                        CHANNELS 3 Zrotation Xrotation Yrotation
                                        End Site
                                        {
                                            OFFSET  -2.582190   0.000000   0.000000
                                        }
                                    }
                                }
                            }
                            JOINT RightFinger1
                            {
                                OFFSET  -8.364480   0.000000   3.252850
                                CHANNELS 3 Zrotation Xrotation Yrotation
                                JOINT RightFinger11
                                {
                                    OFFSET  -4.646930   0.000000   0.000000
                                    CHANNELS 3 Zrotation Xrotation Yrotation
                                    JOINT RightFinger12
                                    {
                                        OFFSET  -2.323470   0.000000   0.000000
                                        CHANNELS 3 Zrotation Xrotation Yrotation
                                        End Site
                                        {
                                            OFFSET  -2.273050   0.000000   0.000000
                                        }
                                    }
                                }
                            }
                            JOINT RightFinger2
                            {
                                OFFSET  -8.364480   0.000000   1.078090
                                CHANNELS 3 Zrotation Xrotation Yrotation
                                JOINT RightFinger21
                                {
                                    OFFSET  -5.111620   0.000000   0.000000
                                    CHANNELS 3 Zrotation Xrotation Yrotation
                                    JOINT RightFinger22
                                    {
                                        OFFSET  -2.788160   0.000000   0.000000
                                        CHANNELS 3 Zrotation Xrotation Yrotation
                                        End Site
                                        {
                                            OFFSET  -2.727660   0.000000   0.000000
                                        }
                                    }
                                }
                            }
                            JOINT RightFinger3
                            {
                                OFFSET  -7.899780   0.000000  -1.078090
                                CHANNELS 3 Zrotation Xrotation Yrotation
                                JOINT RightFinger31
                                {
                                    OFFSET  -4.646930   0.000000   0.000000
                                    CHANNELS 3 Zrotation Xrotation Yrotation
                                    JOINT RightFinger32
                                    {
                                        OFFSET  -2.323470   0.000000   0.000000
                                        CHANNELS 3 Zrotation Xrotation Yrotation
                                        End Site
                                        {
                                            OFFSET  -2.273050   0.000000   0.000000
                                        }
                                    }
                                }
                            }
                            JOINT RightFinger4
                            {
                                OFFSET  -7.435090   0.000000  -3.252850
                                CHANNELS 3 Zrotation Xrotation Yrotation
                                JOINT RightFinger41
                                {
                                    OFFSET  -3.717550   0.000000   0.000000
                                    CHANNELS 3 Zrotation Xrotation Yrotation
                                    JOINT RightFinger42
                                    {
                                        OFFSET  -1.858770   0.000000   0.000000
                                        CHANNELS 3 Zrotation Xrotation Yrotation
                                        End Site
                                        {
                                            OFFSET  -1.818440   0.000000   0.000000
                                        }
                                    }
                                }
                            }
                        }
                    }
                }
            }
        }
    }
    JOINT LeftHip
    {
        OFFSET   9.783040   0.000000   0.000000
        CHANNELS 3 Zrotation Xrotation Yrotation
        JOINT LeftKnee
        {
            OFFSET   0.000032 -41.789100  -0.002222
            CHANNELS 3 Zrotation Xrotation Yrotation
            JOINT LeftAnkle
            {
                OFFSET   0.000087 -41.133200  -0.000135
                CHANNELS 3 Zrotation Xrotation Yrotation
                JOINT LeftToe
                {
                    OFFSET   0.000000  -6.358960  14.674500
                    CHANNELS 3 Zrotation Xrotation Yrotation
                    End Site
                    {
                        OFFSET   0.000000   0.000000   3.913200
                    }
                }
            }
        }
    }
    JOINT RightHip
    {
        OFFSET  -9.783040   0.000000   0.000000
        CHANNELS 3 Zrotation Xrotation Yrotation
        JOINT RightKnee
        {
            OFFSET   0.000047 -41.789100  -0.000896
            CHANNELS 3 Zrotation Xrotation Yrotation
            JOINT RightAnkle
            {
                OFFSET  -0.000117 -41.133300  -0.000248
                CHANNELS 3 Zrotation Xrotation Yrotation
                JOINT RightToe
                {
                    OFFSET   0.000000  -6.358970  14.674500
                    CHANNELS 3 Zrotation Xrotation Yrotation
                    End Site
                    {
                        OFFSET   0.000000   0.000000   3.913200
                    }
                }
            }
        }
    }
}
MOTION
Frames: 4
Frame Time:   0.016667
  1.191590  89.390800  -1.437770  -2.133760 -16.402200   8.090590   0.713065  12.620600   6.795350  -0.158261  25.235800  13.954800  -2.986480  -1.032110  -0.047653  -4.911120  -2.075680  -2.088100 -14.360900  -8.648240  -2.709360 -67.332500  21.817100 -15.737300  -2.185400 -10.970300 -10.870000   6.239950  -2.892590   9.908460  42.977000  31.143700 -62.277900 -23.725100   0.002531   0.004088  -6.862580  -0.006386   0.005754 -27.965000   3.948230  -7.389440 -23.089000   0.004841   0.001503 -16.162300   0.002926   0.005109 -27.040500   1.289280  -2.524150 -27.278800   0.005402   0.011259 -18.167700   0.005527   0.000910 -26.804600  -1.395360   2.760630 -26.838200   0.000547   0.009780 -17.874200  -0.006199   0.001106 -28.765800  -1.489420   2.712110 -43.201200   0.001449   0.002407 -28.771900  -0.001913   0.006894   1.396220  -7.181720  17.273100  43.309300  32.884300  67.672000  -2.893880  19.669800  16.853200 -40.459900  28.745800  25.755100 -48.010900  33.609500  69.602600  14.648900   0.005056  -0.001248   2.324460  -0.003368   0.001013   9.959890   1.987480  11.131600   8.307700   0.004696   0.002227   5.815400   0.003999   0.000210   7.969350   0.741228   5.265700   8.003320   0.001821   0.002312   5.330210  -0.001023  -0.000161  10.710400  -1.347230  -7.105070  10.794800   0.003378  -0.000524   7.189330   0.006343  -0.005586  12.588800  -3.006840 -13.230700  19.405400   0.000463   0.000257  12.924000  -0.005508  -0.000875   3.751900  18.322200   3.704790   0.786435   0.115217   4.428680  -1.754760  -2.253220   0.679542   0.000000   0.000000   0.000000   3.720620  12.832600  -5.756040   0.316938   8.755070 -13.363800  -2.340190  -4.463020  -4.074050   0.000000   0.000000   0.000000
  1.264610  89.382500  -1.491750  -2.085440 -16.326600   8.364420   0.736044  12.589100   6.708280  -0.087608  25.175600  13.765900  -2.987180  -0.996268  -0.048034  -4.911250  -2.003640  -1.912080 -14.287600  -8.567650  -2.699820 -67.333800  21.666600 -15.603400  -2.172050 -10.878700 -10.884500   6.233810  -2.857560   9.999750  43.025600  31.271800 -62.365300 -23.778700   0.002896   0.004259  -6.889350  -0.006384   0.005922 -27.935900   3.927430  -7.359010 -23.063400   0.004811   0.001445 -16.144400   0.003022   0.005070 -27.047800   1.279410  -2.503950 -27.306900   0.005417   0.011271 -18.186400   0.005458   0.000977 -26.790000  -1.395430   2.761050 -26.823700   0.000917   0.009916 -17.864600  -0.006216   0.001141 -28.711500  -1.487400   2.712740 -43.120200   0.001539   0.002705 -28.718000  -0.001809   0.006941   1.496000  -7.143890  17.214900  43.543200  32.999100  67.313900  -2.965040  19.560200  16.838800 -40.557100  28.603200  25.723500 -48.205500  33.658300  69.488000  14.598300   0.004992  -0.001176   2.299130  -0.003366   0.000949  10.083000   1.987700  11.040600   8.406750   0.004693   0.002074   5.884730   0.003999   0.000171   8.031940   0.730832   5.167340   8.064740   0.001740   0.002084   5.371120  -0.001261   0.000000  10.709400  -1.366430  -7.184400  10.794800   0.003198  -0.000357   7.189320   0.006341  -0.006300  12.526300  -3.006640 -13.280500  19.313800   0.000174   0.000352  12.863000  -0.006713  -0.000814   3.734520  18.158000   3.729030   0.761167   0.159396   4.318990  -1.780610  -2.224780   0.522746   0.000000   0.000000   0.000000   3.681950  12.637000  -5.713660   0.321995   8.970550 -13.523800  -2.304090  -4.527130  -4.212080  -0.000000   0.000000   0.000000
  1.333880  89.376600  -1.552810  -2.071490 -16.224700   8.554620   0.763223  12.540800   6.616280  -0.001718  25.083800  13.564800  -2.986510  -0.954721  -0.048397  -4.907010  -1.920010  -1.735690 -14.229300  -8.480530  -2.674410 -67.342300  21.528800 -15.455200  -2.143660 -10.810100 -10.846900   6.221780  -2.754120  10.095400  43.066900  31.384400 -62.446100 -23.837400   0.003274   0.004432  -6.918690  -0.006385   0.006093 -27.955800   3.916750  -7.329410 -23.077800   0.004779   0.001394 -16.154500   0.003115   0.005037 -27.051200   1.273600  -2.490960 -27.319800   0.005433   0.011279 -18.195000   0.005387   0.001020 -26.761900  -1.387940   2.748910 -26.795100   0.001311   0.010046 -17.845500  -0.006232   0.001190 -28.649600  -1.477400   2.701550 -43.026800   0.001625   0.004621 -28.655900  -0.001710   0.006994   1.612720  -7.124870  17.190100  43.945300  33.063800  66.783400  -3.183120  19.650700  17.035900 -40.639300  28.368300  25.672400 -48.424000  33.794400  69.511400  14.514600   0.004922  -0.001122   2.257310  -0.003374   0.000881  10.210900   2.005210  11.049000   8.512860   0.004695   0.001919   5.959000   0.004000   0.000092   8.119420   0.733308   5.165260   8.152600   0.001663   0.001852   5.429640  -0.001498   0.000202  10.750500  -1.380460  -7.183680  10.834200   0.003025  -0.000175   7.215570   0.006336  -0.007041  12.544000  -3.003670 -13.247900  19.338400  -0.000133   0.000444  12.879300  -0.007893  -0.000763   3.728480  18.002000   3.756320   0.729711   0.141057   4.298170  -1.829060  -2.168340   0.361887   0.000000   0.000000   0.000000   3.646660  12.389600  -5.650470   0.330722   9.209070 -13.652200  -2.280550  -4.581850  -4.330360  -0.000000   0.000000  -0.000000
  1.401460  89.371900  -1.617100  -2.094790 -16.112100   8.631820   0.795962  12.479900   6.520380   0.096696  24.967500  13.353700  -2.983490  -0.915127  -0.048766  -4.901000  -1.840260  -1.567860 -14.175900  -8.384040  -2.637640 -67.375700  21.378300 -15.290100  -2.104640 -10.743900 -10.751400   6.203970  -2.621110  10.188600  43.071500  31.459700 -62.508900 -23.892700   0.003659   0.004607  -6.946370  -0.006387   0.006268 -28.001100   3.913400  -7.313240 -23.114700   0.004746   0.001349 -16.180300   0.003206   0.005010 -27.054600   1.271640  -2.486060 -27.333700   0.005451   0.011283 -18.204300   0.005314   0.001130 -26.738800  -1.374660   2.726130 -26.771700   0.001726   0.010172 -17.829900  -0.006251   0.001346 -28.590700  -1.462230   2.680330 -42.937400   0.001706   0.007368 -28.596400  -0.001617   0.007058   1.738110  -7.119640  17.186100  44.386300  33.120100  66.110400  -3.559800  19.850700  17.524100 -40.712600  28.085900  25.636400 -48.727500  33.970500  69.631300  14.457800   0.004845  -0.001093   2.228910  -0.003382   0.000815  10.371100   2.057560  11.107600   8.648840   0.004696   0.001765   6.054190   0.004001  -0.000000   8.259130   0.750626   5.164980   8.292650   0.001587   0.001616   5.522920  -0.001733   0.000406  10.862300  -1.386020  -7.178340  10.948700   0.002860   0.000000   7.291840   0.006333  -0.007789  12.594800  -2.990240 -13.136400  19.407700  -0.000459   0.000535  12.925500  -0.009026  -0.000738   3.726610  17.853700   3.789130   0.698391   0.102912   4.295190  -1.880530  -2.107600   0.251912  -0.000000   0.000000   0.000000   3.610690  12.115100  -5.582310   0.336355   9.459270 -13.717300  -2.262040  -4.631690  -4.398480   0.000000   0.000000   0.000000
